<svg xmlns="http://www.w3.org/2000/svg" class="diagram" data-model="59" width="30020" height="30020"><style>svg{font-family:"Helvetica Neue",Helvetica,sans-serif;font-size:12px;background-color:#fff}svg .note .border{fill:#f9ed5a;stroke:#b5af62}svg .cont .border,svg .node .border,svg .caption .border{fill:#fff;stroke:#000}svg .cont .sep,svg .node .sep,svg .caption .sep{stroke:#000}svg .cont .head{stroke:none;fill:none;fill-opacity:.5}svg .cont .border{fill-opacity:.2}svg .cont text{font-weight:bold}svg .node .item rect{fill:none;stroke:none}svg .node .item text{dominant-baseline:text-after-edge;alignment-baseline:after-edge;fill:#000}svg .node .item.title rect{fill-opacity:.3}svg .node .item.title text{font-weight:bold}svg .node .item.empty text{text-anchor:middle}svg .caption text.title{font-weight:bold}svg .resize{fill:none;stroke:transparent;stroke-opacity:0;stroke-width:5px}svg .shape{fill:#fff;stroke:#000}svg .shape-title{font-weight:bold;fill:#000;dominant-baseline:text-after-edge;alignment-baseline:after-edge;text-anchor:middle}svg .link .border{fill:none;stroke:transparent;stroke-opacity:0;stroke-width:10px}svg .link .road{fill:none;stroke:#000;stroke-width:1.5;stroke-linejoin:round;stroke-linecap:round}svg .link .road.dashed{stroke-dasharray:5}svg .link .link-label{text-anchor:middle}</style><defs><filter id="shadow" height="130%"><feGaussianBlur in="SourceAlpha" stdDeviation="3"></feGaussianBlur><feOffset dx="2" dy="2" result="offsetblur"></feOffset><feComponentTransfer><feFuncA type="linear" slope="0.5"></feFuncA></feComponentTransfer><feMerge><feMergeNode></feMergeNode><feMergeNode in="SourceGraphic"></feMergeNode></feMerge></filter><marker id="start_1" markerWidth="12" markerHeight="12" refX="2" refY="6" orient="auto" markerUnits="strokeWidth"><path d="M10,2 L2,6 L10,10" fill="none" stroke="#000"></path></marker><marker id="end_1" markerWidth="12" markerHeight="12" refX="11" refY="6" orient="auto" markerUnits="strokeWidth"><path d="M2,2 L10,6 L2,10" fill="none" stroke="#000"></path></marker><marker id="start_2" markerWidth="12" markerHeight="12" refX="2" refY="6" orient="auto" markerUnits="strokeWidth"><path d="M10,2 L2,6 L10,10z" fill="#fff" stroke="#000"></path></marker><marker id="end_2" markerWidth="12" markerHeight="12" refX="11" refY="6" orient="auto" markerUnits="strokeWidth"><path d="M2,2 L10,6 L2,10z" fill="#fff" stroke="#000"></path></marker><marker id="start_3" markerWidth="22" markerHeight="12" refX="2" refY="6" orient="auto" markerUnits="strokeWidth"><path d="M10,2 L2,6 L10,10 L18,6z" fill="#000" stroke="#000"></path></marker><marker id="end_3" markerWidth="22" markerHeight="12" refX="19" refY="6" orient="auto" markerUnits="strokeWidth"><path d="M10,2 L2,6 L10,10 L18,6z" fill="#000" stroke="#000"></path></marker><marker id="start_4" markerWidth="22" markerHeight="12" refX="2" refY="6" orient="auto" markerUnits="strokeWidth"><path d="M10,2 L2,6 L10,10 L18,6z" fill="#fff" stroke="#000"></path></marker><marker id="end_4" markerWidth="22" markerHeight="12" refX="19" refY="6" orient="auto" markerUnits="strokeWidth"><path d="M10,2 L2,6 L10,10 L18,6z" fill="#fff" stroke="#000"></path></marker><marker id="start_6" markerWidth="16" markerHeight="16" refX="2" refY="8" orient="auto" markerUnits="strokeWidth"><path d="M0,0 L16,8 L0,16" fill="none" stroke="#000"></path></marker><marker id="end_6" markerWidth="12" markerHeight="16" refX="15" refY="8" orient="auto" markerUnits="strokeWidth"><path d="M16,0 L0,8 L16,16" fill="none" stroke="#000"></path></marker><pattern id="grid" width="20" height="20" patternUnits="userSpaceOnUse"><path d="M 20 0 L 0 0 0 20" stroke="#999" stroke-width="0.3" fill="none"></path></pattern></defs><g class="viewport" data-grid="20" transform="matrix(1 0 0 1 0 0)" data-zoom="1" data-x="0" data-y="0"><g class="background"><g class="grid"><rect x="-30000" y="-30000" width="60000" height="60000" fill="url(#grid)"></rect><line x1="-30000" y1="0" x2="30000" y2="0" class="axis"></line><line x1="0" y1="-30000" x2="0" y2="30000" class="axis"></line></g></g><g class="body"><g class="containers"></g><g class="links"><g data-render="0" data-label="true" class="link" data-obj="BPMStateTransition" data-id="88" data-from="BPMState" data-fromid="57" data-to="BPMState" data-toid="56" data-tpl="Transition" data-keys="{&quot;stm_name&quot;:&quot;RH_ENT_ETAT-CP-BR&quot;}"><path d="M 376 130 L 281.67578125 121 Q 187.3515625 112 180.17578125 88 L 173 64" class="road curved bridge" marker-end="url(#end_1)" style="stroke: rgb(0, 0, 0); stroke-width: 1px;"></path><text class="link-label" transform="rotate(5 282,121)"><tspan x="282" y="121" dy="1.2em">RH_ADMIN</tspan></text></g><g data-render="0" data-label="true" class="link" data-obj="BPMStateTransition" data-id="87" data-from="BPMState" data-fromid="56" data-to="BPMState" data-toid="57" data-tpl="Transition" data-keys="{&quot;stm_name&quot;:&quot;RH_ENT_ETAT-BR-CP&quot;}"><path d="M 241 50 L 310.67578125 58 Q 380.3515625 66 406.67578125 90.5 L 433 115" class="road curved bridge" marker-end="url(#end_1)" style="stroke: rgb(0, 0, 0); stroke-width: 1px;"></path><text class="link-label" transform="rotate(7 311,58)"><tspan x="311" y="58" dy="1.2em">Alert:RHEntretienComplet</tspan><tspan x="311" y="58" dy="2.4em">RH_ADMIN</tspan><tspan x="311" y="58" dy="3.5999999999999996em">RH_EVAL</tspan></text></g><g data-render="0" data-label="true" class="link" data-obj="BPMStateTransition" data-id="90" data-from="BPMState" data-fromid="58" data-to="BPMState" data-toid="57" data-tpl="Transition" data-keys="{&quot;stm_name&quot;:&quot;RH_ENT_ETAT-VC-CP&quot;}"><path d="M 314 237 L 364.67578125 230 Q 415.3515625 223 430.67578125 191 L 446 159" class="road curved bridge" marker-end="url(#end_1)" style="stroke: rgb(0, 0, 0); stroke-width: 1px;"></path><text class="link-label" transform="rotate(-8 365,230)"><tspan x="365" y="230" dy="1.2em">RH_ADMIN</tspan></text></g><g data-render="0" data-label="true" class="link" data-obj="BPMStateTransition" data-id="89" data-from="BPMState" data-fromid="57" data-to="BPMState" data-toid="58" data-tpl="Transition" data-keys="{&quot;stm_name&quot;:&quot;RH_ENT_ETAT-CP-VC&quot;}"><path d="M 376 147 L 286.17578125 157.5 Q 196.3515625 168 185.17578125 202 L 174 236" class="road curved bridge" marker-end="url(#end_1)" style="stroke: rgb(0, 0, 0); stroke-width: 1px;"></path><text class="link-label" transform="rotate(-7 286,158)"><tspan x="286" y="158" dy="1.2em">Alert:RHEntretienValideCollab</tspan><tspan x="286" y="158" dy="2.4em">RH_COLLAB</tspan></text></g><g data-render="0" data-label="true" class="link" data-obj="BPMStateTransition" data-id="92" data-from="BPMState" data-fromid="59" data-to="BPMState" data-toid="58" data-tpl="Transition" data-keys="{&quot;stm_name&quot;:&quot;RH_ENT_ETAT-VE-VC&quot;}"><path d="M 478 344 L 427.1609702148437 305.5 Q 376.3219404296874 267 345.1609702148437 265.5 L 314 264" class="road curved bridge" marker-end="url(#end_1)" style="stroke: rgb(0, 0, 0); stroke-width: 1px;"></path><text class="link-label" transform="rotate(37 427,306)"><tspan x="427" y="306" dy="1.2em">RH_ADMIN</tspan></text></g><g data-render="0" data-label="true" class="link" data-obj="BPMStateTransition" data-id="91" data-from="BPMState" data-fromid="58" data-to="BPMState" data-toid="59" data-tpl="Transition" data-keys="{&quot;stm_name&quot;:&quot;RH_ENT_ETAT-VC-VE&quot;}"><path d="M 185 280 L 219.17578125 321.5 Q 253.3515625 363 315.17578125 363.5 L 377 364" class="road curved bridge" marker-end="url(#end_1)" style="stroke: rgb(0, 0, 0); stroke-width: 1px;"></path><text class="link-label" transform="rotate(51 219,322)"><tspan x="219" y="322" dy="1.2em">RH_EVAL</tspan></text></g></g><g class="nodes"><g data-x="93.0546875" data-y="20" transform="translate(93.0546875 20)" data-color="#9FC5E8" class="node" data-obj="BPMState" data-id="56" data-tpl="State" data-keys="{&quot;sta_state_id__lov_list_id__lov_name&quot;:&quot;RH_ENT_ETAT&quot;,&quot;sta_state_id__lov_code&quot;:&quot;BR&quot;}" data-w="148" data-h="44"><rect x="0" y="0" width="148" height="44" rx="7" ry="7" class="border" filter="url(#shadow)"></rect><g class="content" data-obj="BPMState"><g class="item title empty" data-id="56"><rect x="1" y="0" width="146" height="44" class="border-item" rx="7" ry="7" style="fill: rgb(159, 197, 232);"></rect><text x="74" y="22" dy="0.5em">BR / Draft</text></g></g><rect x="0" y="0" width="148" height="44" class="resize"></rect></g><g data-x="376.3515625" data-y="115" transform="translate(376.3515625 115)" data-color="#EA9999" class="node" data-obj="BPMState" data-id="57" data-tpl="State" data-keys="{&quot;sta_state_id__lov_list_id__lov_name&quot;:&quot;RH_ENT_ETAT&quot;,&quot;sta_state_id__lov_code&quot;:&quot;CP&quot;}" data-w="161.03125" data-h="44"><rect x="0" y="0" width="161.03125" height="44" rx="7" ry="7" class="border" filter="url(#shadow)"></rect><g class="content" data-obj="BPMState"><g class="item title empty" data-id="57"><rect x="1" y="0" width="159.03125" height="44" class="border-item" rx="7" ry="7" style="fill: rgb(234, 153, 153);"></rect><text x="80.515625" y="22" dy="0.5em">CP / Completed</text></g></g><rect x="0" y="0" width="161.03125" height="44" class="resize"></rect></g><g data-x="20" data-y="236" transform="translate(20 236)" data-color="#F9CB9C" class="node" data-obj="BPMState" data-id="58" data-tpl="State" data-keys="{&quot;sta_state_id__lov_list_id__lov_name&quot;:&quot;RH_ENT_ETAT&quot;,&quot;sta_state_id__lov_code&quot;:&quot;VC&quot;}" data-w="294.109375" data-h="44"><rect x="0" y="0" width="294.109375" height="44" rx="7" ry="7" class="border" filter="url(#shadow)"></rect><g class="content" data-obj="BPMState"><g class="item title empty" data-id="58"><rect x="1" y="0" width="292.109375" height="44" class="border-item" rx="7" ry="7" style="fill: rgb(249, 203, 156);"></rect><text x="147.0546875" y="22" dy="0.5em">VC / Validated by emplyee</text></g></g><rect x="0" y="0" width="294.109375" height="44" class="resize"></rect></g><g data-x="376.6796875" data-y="344" transform="translate(376.6796875 344)" data-color="#93C47D" class="node" data-obj="BPMState" data-id="59" data-tpl="State" data-keys="{&quot;sta_state_id__lov_list_id__lov_name&quot;:&quot;RH_ENT_ETAT&quot;,&quot;sta_state_id__lov_code&quot;:&quot;VE&quot;}" data-w="260.453125" data-h="44"><rect x="0" y="0" width="260.453125" height="44" rx="7" ry="7" class="border" filter="url(#shadow)"></rect><g class="content" data-obj="BPMState"><g class="item title empty" data-id="59"><rect x="1" y="0" width="258.453125" height="44" class="border-item" rx="7" ry="7" style="fill: rgb(147, 196, 125);"></rect><text x="130.2265625" y="22" dy="0.5em">VE / Validated by evaluator</text></g></g><rect x="0" y="0" width="260.453125" height="44" class="resize"></rect></g></g></g><g class="foreground"></g></g></svg>