<svg height="166" viewBox="0 0 250 166" width="250" xmlns="http://www.w3.org/2000/svg"><g fill="none" transform="translate(9)"><path d="m100.875072 6.37754941c-9.6384976-3.66555995-19.8237677-6.72748353-30.2211853-6.342556-15.287747.56426878-29.9631094 9.16608696-37.1498814 21.79652179-6.0976021 10.7014229-6.8499605 23.2443741-9.4766535 35.1202635-3.2325165 14.6294334-9.4350988 28.5371278-16.05760213 42.1342556-3.55620553 7.3048747-7.30924901 14.7672197-7.89320158 22.7741497-.80922266 11.11697 4.87064559 22.194572 13.77865611 29.589118 8.9080106 7.394545 20.737971 11.296311 32.6116733 12.147088 6.318498.452727 12.9213175.032806 18.533386-2.718551 5.9379447-2.911014 10.2661924-8.170962 16.228195-11.040421 5.524585-2.6595 11.9874308-3.031305 18.1900132-2.685745 8.0984513.451064 16.0928963 2.041412 23.7474043 4.724111 8.669618 3.044427 16.731225 7.455784 25.370224 10.543952 8.638999 3.088169 18.314677 4.811595 27.154888 2.235205 8.310936-2.421107 14.8722-8.3 20.788274-14.253255 9.673623-9.716837 18.540198-20.205026 26.511884-31.360658 5.338683-7.482029 10.307747-15.375231 12.667616-24.0951518 4.51415-16.672174-1.697181-35.4811331-15.47365-46.8671147-11.414414-9.4329117-26.73278-13.5271409-41.727457-16.0116732-13.673676-2.2658235-29.484137-2.4057971-42.07083-8.3109355-12.002741-5.6383135-22.92506-12.5888801-35.511753-17.37860339z" fill="#387ed1" opacity=".1"/><path d="m138.35083 135.380764v7.945692h2.259262l-.437417-8.529644z" fill="#aaabb0"/><path d="m104.413781 133.777628v7.945692h2.26145l-.437418-8.529644z" fill="#aaabb0"/><rect fill="#aaabb0" height="14.1439" rx="1.457694" width="2.915389" x="140.975336" y="120.655099"/><rect fill="#aaabb0" height="17.277997" rx="1.457694" width="2.915389" x="103.576126" y="117.518814"/><path d="m147.610962 36.0147826s2.915388-1.240079 3.352806 0c.437418 1.2400791.656127 11.9568116.656127 11.9568116h-2.771041z" fill="#aaabb0"/><path d="m115.679473 36.0147826s-2.917576-1.240079-3.354993 0c-.437418 1.2400791-.656127 11.9568116-.656127 11.9568116h2.771041z" fill="#aaabb0"/><path d="m116.114704 25.370224-.437418 8.894888h1.968379v-9.1135968z" fill="#aaabb0"/><path d="m114.439394 47.9715942.583953-12.8316469s-.218709-2.8432148 6.705612-1.9683794c6.924322.8748353 27.194256 2.6245059 27.194256 2.6245059v12.1755204z" fill="#33323d"/><path d="m142.143241 115.552622-1.093544 19.609433s-16.040105 8.894888-35.505191.437418l1.749671-20.630804z" fill="#33323d"/><path d="m126.905797 38.3462187.363057 12.685112h22.60137l-1.312253-16.7662187z" fill="#444053"/><path d="m107.913123 107.167325h21.289117v26.97336h-21.289117z" fill="#4c4981"/><path d="m121.365903 118.177128s3.061923-2.405797 3.571515-1.677497c.509591.7283-1.819658 3.864585-2.768854 3.499341-.949196-.365243-.802661-1.821844-.802661-1.821844z" fill="#ffb9b9"/><path d="m66.599025 47.241107h139.748379v69.986825h-139.748379z" fill="#504f60"/><path d="m114.511568 24.8606324s-1.093544-10.207141 0-11.4450329c1.093544-1.237892 19.465085-12.97818184 36.4522.8004743 0 0 1.603136.074361 1.312253 3.71805-.171446 2.3061314-.159744 4.6222272.035286 6.9265086 0 0-36.55966 2.6245059-37.799739 0z" fill="#33323d"/><path d="m114.511568 24.8606324s-1.093544-10.207141 0-11.4450329c1.093544-1.237892 19.465085-12.97818184 36.4522.8004743 0 0 1.603136.074361 1.312253 3.71805-.171446 2.3061314-.159744 4.6222272.035286 6.9265086 0 0-36.55966 2.6245059-37.799739 0z" fill="#000" opacity=".1"/><path d="m114.511568 26.1728854s-1.093544-10.207141 0-11.445033c1.093544-1.2378919 19.465085-12.97818178 36.4522.8004743 0 0 1.603136.074361 1.312253 3.7180501-.171446 2.3061314-.159744 4.6222272.035286 6.9265086 0 0-36.55966 2.6245059-37.799739 0z" fill="#33323d"/><path d="m152.932148 21.5078261s1.165718 4.3741765.802661 5.1024769-.297444 2.7710409-.297444 2.7710409.078735 1.3122529-.505217 1.4566008c-.583953.1443478-1.093545.2187088-.621134.6561264.472412.4374177 0 1.0935442 0 1.0935442s-.255889 1.0213702 0 1.6774967c.25589.6561265-1.495968.9295125-1.347246 1.7496706s.63863 3.1340975 0 3.2084585.218709 2.9153887-.356495 2.9153887-.98419 5.1024769-.98419 5.1024769-4.046113-3.4249802-6.742793-2.477971c0 0 .218709-2.8432148 1.093544-3.864585s.610198-3.643689.610198-3.643689l4.339183-13.0503558z" fill="#4c4981"/><path d="m131.279974 81.8233465c-.94701 1.0476153-1.96838-4.5469565-1.96838-4.5469565s-2.69668 3.7180501-4.44635 1.240079c-1.211647-1.7168643-.25589-6.5809486.437417-9.4044795.310567-1.2553887.573018-2.1083531.573018-2.1083531l3.936758-.6561265s.013123.8573386.100606 1.8983926c.118103 1.4062978.373993 3.1515942.918578 3.5693281.960131.7239262 1.397549 8.9517523.448353 10.0081159z" fill="#ae6e79"/><path d="m129.23942 16.3309881s-6.854334-.0721739-8.529644 3.5715152-1.749671 4.8859552-2.405797 5.4677207c-.656127.5817655 7.14303 3.6458761 7.14303 3.6458761l.365244 12.5385771s1.530962-1.5506456 4.008933-.8485902c2.477971.7020553 5.614255 0 5.614255 0s-.146535-.2646377 1.896206 0c2.04274.2646376 8.529644-3.1603426 8.529644-3.1603426s.107167-5.4852174-.03718-6.6531225c-.144348-1.1679052 4.627878-9.7500396 4.627878-9.7500396s3.718051-3.5715151-.144347-4.8115942c0 0-1.366931-2.0602371-4.883768-2.0406935-3.516838.019824-16.184454 2.0406935-16.184454 2.0406935z" fill="#000" opacity=".1"/><path d="m129.23942 16.1122793s-6.854334-.0721739-8.529644 3.5715152c-1.67531 3.643689-1.749671 4.8859552-2.405797 5.4677207-.656127.5817654 7.14303 3.6458761 7.14303 3.6458761l.365244 12.5385771s1.530962-1.5506456 4.008933-.8485903c2.477971.7020554 5.614255 0 5.614255 0s-.146535-.2646377 1.896206 0c2.04274.2646377 8.529644-3.1603425 8.529644-3.1603425s2.550145-4.1554677 2.405797-5.3211858c-.144348-1.165718 5.102477-9.9884321 5.102477-9.9884321s.802662-4.6650593-3.061923-5.9051384c0 0-1.366931-2.0602371-4.883768-2.0406935-3.516838.0198239-16.184454 2.0406935-16.184454 2.0406935z" fill="#4c4981"/><path d="m129.93054 68.2393412c-1.502529-.4680369-3.860211.5642688-4.610382.8748353.310567-1.2553886.573017-2.108353.573017-2.108353l3.936759-.6561265s.006561.8573386.100606 1.8896442z" fill="#000" opacity=".1"/><path d="m120.416706 25.1515152h-2.112727s-.437418 4.4485375 0 5.7607905c.437418 1.3122529.656126 1.1219762.509591 2.0930434-.146534.9710672 1.021371 2.4582873 1.021371 2.4582873s.144348 3.6655599.874835 5.030303c.730488 1.3647431-.802661 7.4842161-.802661 7.4842161.418161 1.0564003 1.036818 2.02189 1.821844 2.8432147 1.240079 1.237892 1.896206 5.8307774 1.530962 7.580448s1.02137 2.4057971 1.02137 2.4057971.583953 8.1665876.802662 8.1665876c.218708 0 4.44635-2.1870883 5.758603-.2930698l-1.02137-7.5082741.074361-14.5069565s-1.386614-1.8240316-.656127-3.4271673c.730488-1.6031357-.583952-5.3955468-.583952-5.3955468l-1.896206-8.4552833z" fill="#4c4981"/><path d="m107.294177 140.411067s-3.061924-.656126-3.134098 0c-.072174.656127-3.645876 7.363926.802661 9.332306 4.448538 1.968379 16.328802 6.196021 35.649539.7283 0 0 1.237892.437418.94701-2.259262-.290883-2.69668-.290883-5.686429-.290883-5.686429s-2.917576-.802662-5.104664-.509592c-2.187089.29307-21.214756 4.155468-28.869565-1.605323z" fill="#33323d"/><path d="m107.294177 140.411067s-3.061924-.656126-3.134098 0c-.072174.656127-3.645876 7.363926.802661 9.332306 4.448538 1.968379 16.328802 6.196021 35.649539.7283 0 0 1.237892.437418.94701-2.259262-.290883-2.69668-.290883-5.686429-.290883-5.686429s-2.917576-.802662-5.104664-.509592c-2.187089.29307-21.214756 4.155468-28.869565-1.605323z" fill="#000" opacity=".1"/><path d="m107.294177 139.536232s-3.061924-.656127-3.134098 0c-.072174.656126-3.645876 7.363926.802661 9.332306 4.448538 1.968379 16.328802 6.196021 35.649539.7283 0 0 1.237892.437418.94701-2.259262-.290883-2.69668-.290883-5.68643-.290883-5.68643s-2.917576-.802661-5.104664-.509591c-2.187089.29307-21.214756 4.155467-28.869565-1.605323z" fill="#33323d"/><path d="m125.149565 27.7716469c-.188089 1.0694862-.614572 2.0974177-.680184 3.1800264-.065613 1.0826086.352121 2.3139393 1.35162 2.7382345.278874.0833233.549121.1931799.807036.3280632.384927.2602635.542398.7501713.62332 1.2094598.107408.5929644.133163 1.1978383.076548 1.7977866-.054677.6036364-.183715 1.2532016.113729 1.7802898.522714.9338867 1.88527.7961002 2.92195.5336496l-.356496 2.7622925c-.028432.2187088-.045929.4658498.113729.6145718.152377.1073575.341753.148389.524901.1137286.90108-.0568643 1.828406-.1815284 2.600448-.6561265.772042-.4745982 1.347246-1.3581818 1.200711-2.2483268-.170592-1.0323056-1.237891-1.8524637-1.093544-2.8891436.111542-.8026614.896707-1.3122529 1.412859-1.9290118.933887-1.1285376.98419-2.8432148.251516-4.1204743-.732675-1.2772596-2.147721-2.0689855-3.604322-2.2133334-.807036-.0809222-1.646877.0174967-2.405797-.2624506-.535266-.1963397-.947937-.6316674-1.115415-1.1766535" fill="#444053"/><path d="m99.7137286 125.029275.7632934-1.662187s4.120475-3.83834 5.067484-4.107352c.947009-.269011 4.811594-1.441291 5.395547-1.441291.583952 0 11.228511-.583952 11.228511-.583952l1.237892 2.917576-13.358735 2.932885-4.503215 3.280632z" fill="#767d9f"/><path d="m131.809249 80.2661397-.697681 5.3693017-.269012 2.0667984-3.134098.4374176s-.338998-.7261133-.817971-1.8415283c-1.454413-3.3856126-4.192648-10.3667984-2.604822-11.571884 2.110541-1.6053228 2.624506 3.71805 2.624506 3.71805l2.405797-1.1679051z" fill="#ffb9b9"/><path d="m115.458577 90.254572h15.827958v23.911436h-15.827958z" fill="#fff"/><path d="m115.458577 90.254572h15.827958v23.911436h-15.827958z" fill="#000" opacity=".1"/><path d="m120.908957 90.2632199h15.827958v23.9114361h-15.827958z" fill="#fff" transform="matrix(.98924682 .14625569 -.14625569 .98924682 16.335357 -17.741909)"/><path d="m123.272831 92.0198254h8.146904v12.3067456h-8.146904z" fill="#387ed1" transform="matrix(.98924682 .14625569 -.14625569 .98924682 15.727766 -17.569444)"/><path d="m121.304119 107.836654h9.87033v2.672622h-9.87033z" fill="#387ed1" transform="matrix(.98924682 .14625569 -.14625569 .98924682 17.324641 -17.289257)"/><circle cx="135.435441" cy="20.777339" fill="#000" opacity=".1" r="9.14859"/><circle cx="135.435441" cy="20.55863" fill="#ae6e79" r="9.14859"/><path d="m127.892174 27.3386034c-.062198-.2356415-.039753-.485636.063425-.7064295.347748-.7239262 1.338498-.7873518 2.14116-.7501713 1.887457.0874836 3.95863.098419 5.434914-1.0935441.612385-.4899078 1.296944-1.7212385 2.187089-1.48722.791725.2077734 1.121976 1.2816337 1.946508 1.5200263.597075.17278 1.216021-.1027931 1.824032-.2187088.874835-.17278 1.771541-.0284322 2.659499-.0218709s1.852464-.1618445 2.458287-.8114097c.817971-.8748353.684559-2.2417655.612385-3.4402899-.08971-1.5481839.015363-3.1015058.312754-4.6235046.297444-1.5134651.754545-3.2062714-.080923-4.5032148-.7961-1.23570484-2.445164-1.57470352-3.571515-2.52171274-1.054176-.87483531-1.611884-2.27675889-2.725112-3.08816864-1.401923-1.02137023-3.306877-.87483531-5.030303-.69768116l-3.739921.39805006c-.964506.10279315-1.968379.21870883-2.762292.79391305-1.432543 1.03667984-1.629381 3.19096179-2.985376 4.32606063-.603636.5030303-1.375678.7523583-2.064611 1.1285375s-1.353808.9710672-1.432543 1.7496706c-.065613.6561265.288696 1.26195.461476 1.8940185.408985 1.5090909-.229645 3.0619236-.63863 4.5819499-.408986 1.5200264-.487721 3.3659289.699868 4.3741766.24058.2055863.520527.3630566.754546.5773913.802661.7326745.912015 1.9683794.726113 3.0356785" fill="#444053"/><ellipse cx="136.181238" cy="31.439394" fill="#444053" rx="1" ry="1"/><ellipse cx="136.181238" cy="33.71834" fill="#444053" rx="1" ry="1"/><path d="m131.330277 81.8080369c.234018-.2690119.389301-.9601318.478972-1.8721476l-2.607009-3.2500131s1.104479 6.3010013 2.128037 5.1221607z" fill="#ae6e79"/><path d="m134.269723 135.527299s-4.277944 6.613755-17.643241 5.905138c-12.591067-.656126-18.736785-6.852147-18.4437152-9.039235.2930698-2.187089-.8026614-7.510462 1.8940182-9.041423 1.563768-.885771 3.621818-.36087 5.074045.238392 1.024037.415905 2.195982.205687 3.011621-.540211 1.327562-1.196337 3.803346-2.543583 7.711673-1.482845.502905.134152 1.033385.1243 1.530962-.028433 1.627193-.496469 5.500527-1.358181 8.310935.555521.906725.624966 2.092805.670125 3.044427.115916l.039368-.024058c1.312253-.802662 7.4361 6.779973 7.4361 6.779973s.29307 5.832965-1.966193 6.561265z" fill="#000" opacity=".1"/><path d="m134.269723 135.746008s-4.277944 6.613755-17.643241 5.905138c-12.591067-.656126-18.736785-6.852147-18.4437152-9.039236.2930698-2.187088-.8026614-7.510461 1.8940182-9.041423 1.563768-.88577 3.621818-.360869 5.074045.238393 1.024037.415905 2.195982.205687 3.011621-.540211 1.327562-1.196337 3.803346-2.543583 7.711673-1.482846.502905.134152 1.033385.124301 1.530962-.028432 1.627193-.496469 5.500527-1.358182 8.310935.555521.906725.624966 2.092805.670125 3.044427.115915l.039368-.024058c1.312253-.802661 7.4361 6.779974 7.4361 6.779974s.29307 5.832965-1.966193 6.561265z" fill="#767d9f"/><circle cx="116.626482" cy="129.622161" fill="#000" opacity=".1" r="8.71336"/><circle cx="116.626482" cy="129.84087" fill="#ffb9b9" r="8.71336"/><path d="m114.128827 122.308538c-.914202.247141-1.815283.719552-2.261449 1.495968-.269012.468037-.363057 1.030119-.752358 1.41942-.551146.553334-1.480659.564269-2.226456.874836-.745797.310566-1.237892 1.40411-.507405 1.74967-.761106.039368-1.325375.741423-1.41942 1.439104s.170593 1.393175.426482 2.05805c.835468 2.152095 1.734361 4.398235 3.57589 5.929197 3.000685 2.497654 7.523583 2.381739 11.554387 2.117101.32934.010915.655809-.064482.947009-.218709.437418-.288695.492095-.842029.564269-1.327562.304005-2.07336 1.428169-3.956443 2.16303-5.935758.734862-1.979315 1.03668-4.30419-.201212-6.056047-1.821844-2.598261-8.796469-4.376364-11.862767-3.54527z" fill="#b96b6b"/><path d="m131.111568 85.6354414-.269012 2.0667984-3.134098.4374176s-.338998-.7261133-.817971-1.8415283l4.170778-.7829776z" fill="#000" opacity=".1"/><path d="m134.414071 131.299657 1.824032-2.114914-.365244-11.663742c.179642-.841482.301673-1.694239.365244-2.552332.072174-1.240079-.912016-4.008933-.912016-4.008933.152673-.554274.360005-1.09202.618946-1.605322.437418-.874836-.616759-2.843215-.616759-2.843215s-1.570329-5.102477-.914203-7.654809c.656127-2.552332-.159657-4.0089328-.159657-4.0089328s-.640817-2.8432148-.568643-4.0089328c.072174-1.1657181-1.458788-2.2614493-1.458788-2.2614493l-1.165718-2.8432148-4.665059.8748354v9.8418972s.290882 9.4044791 0 11.2285111c-.290883 1.824032.581765 3.571515.581765 3.571515s-.509592 2.69668-.072174 3.71805c.437418 1.021371 1.312253 3.499342 1.312253 3.499342-.162391.885599-.112168 1.797101.146535 2.659499.437418 1.277259 0 2.00556 0 2.00556z" fill="#767d9f"/><g fill="#000" opacity=".1" transform="translate(122.695652 12.466403)"><path d="m24.8431357 2.51952569c-.2466071 1.28024509-.3573046 2.58295649-.3302503 3.88645586.0187419-1.08386839.132173-2.16402524.3389987-3.22814229.1924637-.97106719.4374176-2.01649539.3849275-2.98537549-.0806078.78340568-.2121109 1.56073546-.3936759 2.32706192z"/><path d="m1.72779974 11.5478261c-.23401845-.2187088-.51396575-.371805-.75454546-.5795784-.63862977-.544585-.90764163-1.33412385-.96013175-2.18708828-.06342556 1.09354414.15965744 2.15209488.96013175 2.84321478.24057971.2077734.52052701.3652437.75454546.5795784.48920152.4840935.7727982 1.138246.79172595 1.8262187.06342556-.9185771-.12247694-1.8743347-.79172595-2.4823452z"/><path d="m1.03011858 3.38123847c.03824744-.46193817-.00167999-.92701888-.11810277-1.37567852-.12685112-.46803689-.3543083-.92513834-.43741765-1.39536232 0 .05030303-.01749671.10279315-.02405798.15747035-.06342555.65612649.29088275 1.26194994.46147563 1.89401845.06284894.23540162.10240671.47641104.11810277.71955204z"/><path d="m23.9179974 10.5833202c-.6058235.6561264-1.5703294.817971-2.4582873.8114097-.8879578-.0065613-1.7868511-.1509091-2.6594993.024058-.6080105.1224769-1.2269565.395863-1.8240316.2187088-.8245323-.2383926-1.1547826-1.312253-1.9443215-1.5200263-.8988933-.23620558-1.5834519.9951251-2.1870883 1.4850329-1.4762846 1.1810277-3.54745715 1.1700922-5.43491433 1.0935441-.80266139-.0371805-1.79341238.0262451-2.13897233.7523584-.10542196.2201829-.12794017.4709892-.06342556.7064295l-2.67262187.419921c-.01009948.2200196-.03420628.4391723-.07217391.6561264l2.74479578-.4374176c-.06451461-.2354404-.0419964-.4862466.06342556-.7064295.34555995-.7261133 1.33631094-.7895389 2.13897233-.7523584 1.88745718.0874835 3.95862973.098419 5.43491433-1.0935441.6123848-.4899078 1.2969434-1.7212385 2.1870883-1.485033.7895389.2055863 1.1197892 1.2816338 1.9443215 1.5200264.5970751.1705929 1.2160211-.1027932 1.8240316-.2187088.8748353-.1749671 1.7715415-.0306193 2.6594993-.024058.8879579.0065612 1.8524638-.1618445 2.4582873-.8114098.6058234-.6495652.6933069-1.61844529.6561264-2.56326742-.026245.73267457-.1771541 1.41067192-.6561264 1.92463772z"/></g><g fill="#000" opacity=".1" transform="translate(124.445323 31.494071)"><path d="m1.92245059 2.06023715c-.25756486-.13563645-.52788672-.24552339-.80703557-.32806324-.47461723-.21568695-.85141739-.60106848-1.05636364-1.0804216.16403162.75454545.5795784 1.44129117 1.27507247 1.73654809.27914885.08253984.54947071.19242678.80703557.32806324.16470056.11634502.29775956.27195639.38711462.45272727-.08748353-.4286693-.24714097-.86608696-.60582345-1.10885376z"/><path d="m5.65799736 7.38142292c-1.00824769.25588933-2.32487483.38930172-2.87820816-.4658498.01721843.20605916.07678343.40634647.17496706.58832675.47241107.84202898 1.62719367.81359684 2.60919631.60582345z"/><path d="m9.74347826 7.98068511c.13997365.88795784-.43741765 1.77372859-1.20289855 2.23957839s-1.69936759.594888-2.60044796.6561265c-.14324148.0185366-.28884185.0020253-.42429512-.048116-.08393823.188935-.04810682.4096367.09129267.5623124.13939948.1526756.35594038.2083817.55171128.1419301.90108037-.0568643 1.8284058-.1815284 2.60044796-.6561265.77204216-.4745982 1.34943346-1.35818183 1.20071146-2.24832676-.04199007-.2247411-.11485397-.4425968-.21652174-.64737813z"/><path d="m10.7145455.06342556c.2705499 1.07755584.0284066 2.21966519-.6561265 3.09472991-.51615286.62550724-1.30131755 1.12635046-1.41285905 1.92901186-.03721545.36902287.03908668.74061428.21870882 1.06511198-.01971283-.13561589-.01971283-.27336961 0-.4089855.11154151-.8026614.8967062-1.31225297 1.41285903-1.92901186.8485903-1.0257444.966693-2.5370224.4374177-3.75085639z"/></g><g fill="#000" opacity=".1" transform="translate(106.729908 121.820817)"><path d="m2.16084321 4.61475626c.74361002-.30837945 1.67312253-.31931489 2.22645587-.87483531.38930171-.38930171.48334651-.9513834.75235836-1.4172332.43741766-.77860343 1.34505929-1.24882741 2.25926219-1.49596838 3.06192357-.83109355 10.04310937.94482213 11.86276677 3.51902503.533306.77882809.8240188 1.69815022.8354678 2.64200264.0700718-1.08965834-.2229646-2.17181638-.8332807-3.07723321-1.8196574-2.57420289-8.7942819-4.35011857-11.86276678-3.51902503-.9142029.24714098-1.81528327.71736495-2.25926219 1.49596838-.26901186.4658498-.36305665 1.02793149-.75235836 1.4172332-.55333334.55333334-1.48284585.56426878-2.22645587.87483531-.56645586.23401845-.98637681.92513834-.83328063 1.38880106.12349015-.42451696.42742673-.7732442.83109354-.95357049z"/><path d="m.23620553 7.79259552c.09185771-.69986825.65612649-1.39973649 1.41942029-1.43910408-.1623399-.06767277-.28535045-.20515515-.3346245-.3739921-.59173025.21986075-1.0128302.74960449-1.09354414 1.37567853-.02077007.17800839-.02077007.35782823 0 .53583662.00874835-.03280632.00874835-.06561265.00874835-.09841897z"/></g><path d="m133.392701 50.35552h19.902503v25.954177h-19.902503z" fill="#fff"/><path d="m133.392701 50.35552h19.902503v25.954177h-19.902503z" fill="#000" opacity=".1"/><path d="m143.340802 53.3773218h19.902503v25.9541766h-19.902503z" fill="#fff" transform="matrix(.98552649 -.16952151 .16952151 .98552649 -9.029825 26.946682)"/><path d="m146.521761 72.248493h4.675995v6.0976021h-4.675995z" fill="#387ed1" transform="matrix(.98552649 -.16952151 .16952151 .98552649 -10.609988 26.324748)"/><path d="m152.898644 71.1504456h4.675995v6.0976021h-4.675995z" fill="#387ed1" transform="matrix(.98552649 -.16952151 .16952151 .98552649 -10.331549 27.389874)"/><path d="m145.769135 63.3373788h16.397722v6.1249799h-16.397722z" fill="#387ed1" transform="matrix(.98557485 -.16924012 .16924012 .98557485 -9.01651 27.01539)"/><path d="m144.019377 56.1669718h16.397722v1.3664769h-16.397722z" fill="#387ed1" transform="matrix(.98557485 -.16924012 .16924012 .98557485 -7.425565 26.581506)"/><path d="m144.549418 58.6443961h16.397722v1.3664768h-16.397722z" fill="#387ed1" transform="matrix(.98557485 -.16924012 .16924012 .98557485 -7.837199 26.706947)"/><path d="m144.584032 43.3043478s-9.148591 9.1857708-4.555705 11.519394c4.592885 2.3336232 7.582635-7.7641634 7.582635-7.7641634l.726113-2.2964427z" fill="#ae6e79"/><path d="m143.783557 42.4929381-1.130724 2.4976548s5.577075.7829776 6.742793 2.4692226l-.69112-4.4069828-.820158-1.8808959z" fill="#000" opacity=".1"/><path d="m144.002266 42.2742292-1.130724 2.4976549s5.577075.7829776 6.742793 2.4692226l-.69112-4.4069829-.820158-1.8808959z" fill="#4c4981"/><path d="m177.762161 88.1965217-.12029.0831094.166219.074361.179341-.0153096.021871-.1246641z" fill="#464a5f"/><path d="m177.762161 88.1965217-.12029.0831094.166219.074361.179341-.0153096.021871-.1246641z" fill="#000" opacity=".1"/><path d="m177.762161 88.1965217-.122477.0787352-.096232-.1181027.059051-.0962319.054678-.0174967z" fill="#9c9ca1"/><path d="m177.762161 88.1965217-.122477.0787352-.096232-.1181027.059051-.0962319.054678-.0174967z" fill="#000" opacity=".1"/><path d="m199.289671 73.0815547-8.95394-12.932253c-.160196-.233128-.406546-.3929591-.684721-.4442451-.278174-.0512859-.565325.010186-.798125.1708591l-19.959367 13.6999209c-.486183.3337697-.610439.9981037-.27776 1.485033l8.929881 13.0962846z" fill="#9c9ca1"/><path d="m199.289671 73.0815547-8.95394-12.932253c-.160196-.233128-.406546-.3929591-.684721-.4442451-.278174-.0512859-.565325.010186-.798125.1708591l-19.959367 13.6999209c-.486183.3337697-.610439.9981037-.27776 1.485033l8.929881 13.0962846z" fill="#000" opacity=".1"/><path d="m199.508379 73.1121739-8.953939-12.932253c-.160601-.2332729-.407333-.3931499-.685865-.444426-.278531-.051276-.566022.0102536-.799168.17104l-19.95718 13.7086693c-.485842.3337832-.610918.9972706-.279948 1.485033l8.929882 13.1028458z" fill="#9c9ca1"/><path d="m206.992596 75.6688801-7.436101-2.3883004-21.748405 15.0755995 7.554202 2.4714097c.342809.1113649.718057.054632 1.012622-.1530961l20.67892-14.6010014c.079353-.0445161.122857-.1335112.109241-.2234737s-.081507-.1620979-.170479-.1811376z" fill="#464a5f"/><path d="m206.992596 75.6688801-7.436101-2.3883004-21.748405 15.0755995 7.554202 2.4714097c.342809.1113649.718057.054632 1.012622-.1530961l20.67892-14.6010014c.079353-.0445161.122857-.1335112.109241-.2234737s-.081507-.1620979-.170479-.1811376z" fill="#000" opacity=".1"/><path d="m206.946667 75.517971-7.4361-2.3904875-21.748406 15.0755995 7.554203 2.4670356c.342347.1134198.718221.057404 1.012622-.1509091l20.678919-14.6010013c.076196-.0456613.117205-.132873.10377-.2206808s-.078646-.1587674-.165008-.1795564z" fill="#464a5f"/><g fill="#000" opacity=".1" transform="translate(174.310935 66.924901)"><path d="m21.6849802 5.60988142-.5489591-.78735178c-.0685421-.09488419-.1996391-.1189829-.297444-.0546772l-.815784.54458498c-.095083.06704644-.1210332.1967975-.0590513.29525691l.5052174.77641634c.0656863.09660152.1956932.12452893.2952569.06342556l.8595257-.5402108c.0971392-.06650745.1242058-.19797344.0612384-.29744401z"/><path d="m20.2196311 6.62469038-.5511463-.78516469c-.068542-.09488419-.199639-.1189829-.297444-.05467721l-.8135968.54895916c-.0958401.06636939-.1227775.19624594-.0612385.29525692l.5052174.77641634c.0649971.0973672.1951393.12628769.2952569.06561264l.8617128-.5402108c.0491795-.03210862.083378-.08264815.0948965-.14024073s-.0006111-.11739773-.033658-.16595163z"/><path d="m18.6799209 7.68980237-.5511462-.78516469c-.0685421-.09488419-.1996391-.1189829-.297444-.05467721l-.8157839.54895916c-.0963832.06719153-.1224576.19852959-.0590514.29744401l.5052174.77641633c.0656863.09660152.1956932.12452893.2952569.06342556l.8595257-.5402108c.0495348-.03175849.0841832-.08213691.0961184-.13975502s.0001502-.11761488-.0326929-.16643734z"/><path d="m17.120527 8.77022398-.5511462-.78735178c-.0683831-.09358203-.1978977-.11756621-.295257-.05467721l-.8157839.55114625c-.095083.06704644-.1210332.1967975-.0590514.29525692l.5052174.77641633c.0648611.0960873.1934298.12487134.2930699.06561265l.8617127-.54239789c.0485578-.03209149.082321-.0822146.0938147-.13927262.0114937-.05705803-.0002302-.116344-.0325762-.16473265z"/><path d="m15.5633202 9.8484585-.5511463-.78516469c-.0685421-.0948842-.1996391-.11898291-.297444-.05467721l-.8135968.54895916c-.0958401.06636939-.1227775.19624594-.0612385.29525691l.5052174.77641633c.0649971.0973672.1951393.1262877.2952569.0656127l.8617128-.5423979c.0485578-.0320915.0823209-.0822146.0938146-.1392727.0114937-.05705798-.0002302-.11634395-.0325761-.1647326z"/><path d="m14.073913 11.025112-.6845586-.9754414c-.0146568-.0219188-.0374958-.0370397-.0633979-.0419734-.025902-.0049338-.0527005.0007324-.0743886.0157284l-1.0016865.6758102c-.0222728.0143089-.0378421.0369873-.0431921.0629141-.0053499.0259269-.0000295.0529158.01476.0748725l.6276943.9645059c.0298631.0461177.0912019.0597485.1377866.0306193l1.0585507-.6561265c.0257264-.0146049.043721-.0397923.0491983-.0688637.0054772-.0290715-.0021182-.0590802-.0207662-.0820454z"/><path d="m12.5167062 12.1033465-.6889328-.9754414c-.0150649-.0220626-.0382863-.0372274-.064544-.0421507-.0262578-.0049234-.0533956.0007991-.0754297.0159057l-1.0016864.6758103c-.0446006.0312544-.056233.0923247-.0262451.1377865l.6276944.9645059c.0135156.023128.0360597.0395758.0622094.0453869.0261498.005811.0535382.0004594.0755771-.0147676l1.0563637-.6561265c.0273979-.0127979.0473916-.0374805.0542224-.0669384.0068309-.029458-.0002596-.0604209-.019229-.0839707z"/><path d="m11.1366535 13.0591041-.6845586-.966693c-.0319307-.0438567-.0928833-.0544992-.1377866-.024058l-1.00168643.6736232c-.04563903.0313789-.05821173.0932753-.02843215.1399736l.62769434.964506c.03055603.0451096.09100114.0585419.13778654.0306192l1.0585507-.6561265c.0295409-.0139537.0504667-.041383.0561196-.0735608.0056528-.0321779-.0046712-.065097-.0276874-.0882837z"/><path d="m9.59256917 14.1264032-.68455863-.9754414c-.0319307-.0438566-.09288323-.0544991-.13778656-.024058l-1.00168643.6736232c-.02241635.0147218-.03802708.0377842-.04336554.0640658-.00533846.0262817.00003727.053607.01493339.0759079l.62769434.9645059c.03055603.0451096.09100113.0585419.13778656.0306192l1.05855072-.6561265c.02583619-.0150626.04383155-.0406303.04929222-.0700339.00546068-.0294036-.00215482-.0597276-.02086007-.0830622z"/><path d="m8.09660079 15.1543347-.68455863-.9754414c-.01465678-.0219188-.03749585-.0370398-.06339786-.0419735-.02590202-.0049337-.05270053.0007325-.0743887.0157284l-1.00168643.6758103c-.02227284.0143089-.03784209.0369873-.04319208.0629141-.00534998.0259269-.00002954.0529158.01475993.0748725l.62769434.9645059c.02986311.0461176.09120192.0597485.13778656.0306192l1.05855072-.6561265c.02572641-.0146048.04372103-.0397922.04919826-.0688637.00547723-.0290714-.00211813-.0590801-.02076611-.0820453z"/><path d="m6.60063241 16.1997628-.67799736-.9776284c-.03193071-.0438566-.09288323-.0544991-.13778657-.024058l-1.00168642.6736232c-.02241635.0147218-.03802709.0377842-.04336554.0640658-.00533846.0262817.00003727.053607.01493339.0759079l.62769433.9645059c.03055603.0451096.09100113.0585419.13778656.0306192l1.05855073-.6561265c.02471079-.0157303.04133855-.0414494.04553999-.0704394.00420144-.0289899-.00444073-.0583713-.02366911-.0804697z"/><path d="m5.10466403 17.2342556-.68455863-.9754414c-.01465678-.0219188-.03749585-.0370397-.06339786-.0419734-.02590201-.0049338-.05270053.0007324-.0743887.0157284l-1.00168643.6714361c-.02227284.0143089-.03784209.0369872-.04319208.0629141-.00534998.0259268-.00002954.0529158.01475993.0748724l.62769434.964506c.02986311.0461176.09120192.0597484.13778656.0306192l1.05855072-.6561265c.02434823-.0147056.04133353-.0390308.04675157-.0669546.00541804-.0279237-.00123758-.056836-.01831942-.0795803z"/><path d="m20.7007905 4.18608696-.5511462-.78735178c-.0685421-.0948842-.1996391-.11898291-.297444-.05467721l-.8070356.55114625c-.0958401.06636939-.1227775.19624593-.0612385.29525691l.5052174.77641634c.0656863.09660151.1956933.12452893.2952569.06342556l.8617128-.5402108c.0988991-.06894517.1233551-.20492035.0546772-.30400527z"/><path d="m18.5465086 1.07386034-.5511463-.79172595c-.0683831-.09358203-.1978977-.11756621-.2952569-.05467721l-.8157839.54895916c-.0958401.06636939-.1227775.19624594-.0612385.29525691l.5052174.77641634c.0649971.09736721.1951393.1262877.2952569.06561265l.8617128-.5402108c.0984562-.06663314.1256545-.1997102.0612385-.2996311z"/><path d="m19.2332543 5.20089592-.5511463-.78516469c-.0683831-.09358203-.1978977-.11756621-.2952569-.05467721l-.8157839.54895916c-.095083.06704644-.1210332.19679749-.0590514.29525691l.5030303.77641634c.0649971.0973672.1951393.1262877.2952569.06561265l.8617128-.54021081c.0491795-.03210862.083378-.08264815.0948965-.14024073s-.0006111-.11739773-.033658-.16595162z"/><path d="m17.6935441 6.26600791-.5511462-.7851647c-.0685421-.09488419-.1996391-.1189829-.297444-.0546772l-.8135969.54239789c-.0971392.06650744-.1242057.19797344-.0612384.29744401l.5052174.77641633c.0656863.09660152.1956932.12452893.2952569.06342556l.8617128-.5402108c.0984562-.06663314.1256544-.1997102.0612384-.29963109z"/><path d="m16.1341502 7.34642951-.5489592-.78735178c-.068542-.09488419-.199639-.1189829-.297444-.0546772l-.8157839.55770751c-.095083.06704644-.1210332.1967975-.0590514.29525691l.5052174.77641634c.0656863.09660152.1956933.12452893.2952569.06342556l.8595257-.5402108c.0504457-.03212124.0855375-.08349862.0971071-.142173s-.0013923-.11952713-.0358686-.16839354z"/><path d="m17.1139657 2.13897233-.5511462-.78516469c-.0683831-.09358203-.1978977-.11756621-.2952569-.05467721l-.8157839.54895916c-.0958401.06636939-.1227775.19624594-.0612385.29525692l.5052174.77641634c.0649971.0973672.1951393.12628769.2952569.06561264l.8617128-.5402108c.0491794-.03210862.0833779-.08264815.0948964-.14024073.0115186-.05759258-.000611-.11739773-.033658-.16595163z"/><path d="m15.5742556 3.20627141-.5511462-.78735178c-.0685421-.09488419-.1996391-.1189829-.2974441-.05467721l-.8135968.5423979c-.0958401.06636939-.1227774.19624593-.0612385.29525691l.5052174.77641634c.0656864.09660151.1956933.12452893.2952569.06342556l.8617128-.5402108c.0958401-.06636939.1227775-.19624594.0612385-.29525692z"/><path d="m14.0148617 4.28450593-.5511463-.78516469c-.0677176-.09433031-.197348-.11929617-.2952569-.0568643l-.8157839.55770751c-.095083.06704645-.1210333.1967975-.0590514.29525692l.5052174.77641634c.0649971.0973672.1951393.1262877.2952569.06561265l.8595257-.5423979c.0504456-.03212124.0855374-.08349861.097107-.14217299s-.0013923-.11952713-.0358685-.16839354z"/><path d="m14.5769433 8.42466403-.5511462-.78516469c-.0677176-.09433031-.197348-.11929617-.2952569-.05686429l-.8092227.55114624c-.095083.06704645-.1210332.1967975-.0590514.29525692l.4964691.77641634c.0648611.09608729.1934298.12487133.2930698.06561264l.8617128-.54239789c.048914-.03174475.0831258-.08170839.0950352-.13879147.0119095-.05708307.0005303-.11655851-.0316097-.1652138z"/><path d="m13.0197365 9.50289855-.5511462-.78516469c-.0685421-.09488419-.1996391-.1189829-.2974441-.05467721l-.8135968.54895916c-.0958401.06636939-.1227775.19624594-.0612385.29525692l.5052174.77641637c.0649971.0973672.1951393.1262877.2952569.0656126l.8617128-.54021079c.0491795-.03210862.083378-.08264815.0948965-.14024073.0115185-.05759259-.0006111-.11739773-.033658-.16595163z"/><path d="m11.5303294 10.679552-.6845586-.97544133c-.0146568-.02191882-.0374959-.03703975-.0633979-.04197347-.025902-.00493371-.0527005.00073244-.0743887.01572841l-1.00168644.67581029c-.02227284.0143089-.03784209.0369872-.04319208.0629141-.00534998.0259268-.00002954.0529158.01475993.0748725l.62769429.9645059c.013954.0226308.0364703.0386534.0624242.0444209.0259538.0057675.053137.0007892.0753624-.0138017l1.0585507-.6561265c.0257264-.0146048.0437211-.0397922.0491983-.0688637.0054772-.0290714-.0021181-.0590801-.0207661-.0820454z"/><path d="m10.1502767 11.6353096-.68455865-.9776284c-.0319307-.0438567-.09288323-.0544992-.13778656-.024058l-.99949934.6736232c-.04563903.0313789-.05821173.0932753-.02843215.1399736l.62769433.964506c.03055604.0451096.09100114.0585418.13778657.0306192l1.0585507-.6561265c.0266858-.0138312.0453764-.0393368.0505265-.0689495.00515-.0296127-.0038321-.059931-.0242814-.0819596z"/><path d="m8.60619236 12.7026087-.68455863-.9754414c-.0319307-.0438566-.09288323-.0544991-.13778656-.0240579l-1.00168643.6736231c-.02227284.0143089-.03784209.0369873-.04319208.0629141-.00534998.0259269-.00002954.0529158.01475993.0748725l.62769433.966693c.03055604.0451097.09100114.0585419.13778657.0306193l1.05855072-.6561265c.02583618-.0150627.04383155-.0406303.04929222-.070034.00546067-.0294036-.00215482-.0597276-.02086007-.0830622z"/><path d="m7.11022398 13.7392885-.68455863-.9754413c-.01465678-.0219188-.03749585-.0370398-.06339786-.0419735-.02590202-.0049337-.05270053.0007324-.0743887.0157284l-1.00168643.6670619c-.02227284.0143089-.03784209.0369873-.04319208.0629141-.00534998.0259269-.00002954.0529158.01475993.0748725l.62769434.9645059c.02986311.0461177.09120192.0597485.13778656.0306193l1.05855072-.6561265c.02304321-.0147329.039095-.0382125.04445887-.0650318.00536386-.0268194-.00042256-.0546666-.01602672-.077129z"/><path d="m16.6677997 4.78534914-.5511462-.78516469c-.0683831-.09358202-.1978977-.11756621-.2952569-.0546772l-.815784.55114624c-.095083.06704645-.1210332.1967975-.0590513.29525692l.5052174.77641634c.0655432.09532073.1939792.12311659.2930698.06342556l.8617128-.54021081c.0491794-.03210862.0833779-.08264815.0948964-.14024073s-.000611-.11739773-.033658-.16595163z"/><path d="m15.1084058 5.86577075-.5511462-.78735178c-.0685421-.09488419-.1996391-.1189829-.2974441-.0546772l-.8135968.55114624c-.0958401.06636939-.1227775.19624594-.0612385.29525692l.5052174.77641633c.0649971.09736721.1951393.1262877.2952569.06561265l.8617128-.54239789c.0485578-.03209149.082321-.08221459.0938147-.13927262s-.0002302-.116344-.0325762-.16473265z"/><path d="m13.553386 6.94400527-.5511462-.78516469c-.0685421-.09488419-.1996391-.1189829-.297444-.05467721l-.8157839.54895916c-.0950831.06704644-.1210333.1967975-.0590514.29525692l.5052174.77641633c.0649971.09736721.1951393.1262877.2952569.06561265l.8595257-.54239789c.048914-.03174476.0831258-.0817084.0950352-.13879147.0119094-.05708308.0005303-.11655851-.0316097-.1652138z"/><path d="m11.9939921 8.02223979-.5511463-.78516469c-.0683831-.09358203-.1978976-.11756621-.2952569-.05467721l-.8157839.54895916c-.095083.06704644-.1210332.1967975-.0590514.29525692l.5052174.78516469c.0648611.09608729.1934298.12487133.2930698.06561264l.8617128-.5402108c.0517433-.03210361.0877599-.08432578.0993826-.14409971.0116227-.05977394-.0022009-.12168723-.0381441-.170841z"/><path d="m10.5155204 9.19889328-.68455861-.97544137c-.01465678-.02191882-.03749585-.03703975-.06339786-.04197347-.02590201-.00493371-.05270053.00073244-.0743887.01572841l-1.00168643.67581028c-.04535432.03056548-.05798269.09176452-.02843215.13778656l.62769434.96669302c.01430889.02227284.03698725.03784209.0629141.04319209.02592686.00535.05291578.0000295.07487246-.0147599l1.05855075-.65612653c.0257264-.01460485.043721-.03979224.0491982-.0688637.0054773-.02907145-.0021181-.05908015-.0207661-.08204539z"/><path d="m9.12671937 10.1546509-.68455863-.9776285c-.03272666-.0441447-.09438574-.05474235-.13997365-.02405797l-.99949934.67362319c-.04563903.03137893-.05821173.09327531-.02843215.13997364l.62769433.96450594c.02986312.0461176.09120193.0597485.13778657.0306192l1.05855072-.6561265c.02572641-.0146048.04372102-.0397922.04919826-.0688637.00547723-.0290714-.00211813-.0590801-.02076611-.0820453z"/><path d="m7.58263505 11.2175758-.68455863-.9776285c-.03272667-.0441447-.09438574-.0547424-.13997365-.024058l-1.00168643.6736232c-.0446486.0320271-.05704692.093065-.02843215.1399737l.62988142.9645059c.02986311.0461176.09120192.0597485.13778656.0306192l1.05636364-.6561265c.02669514-.013637.04571995-.0386968.0516807-.0680749.00596076-.029378-.00179243-.0598711-.02106146-.0828341z"/><path d="m6.08666667 12.2586298-.68455863-.9754414c-.01506488-.0220626-.03828627-.0372274-.06454403-.0421508-.02625776-.0049233-.05339553.0007992-.07542962.0159057l-1.00168643.6758103c-.04460057.0312545-.05623302.0923248-.02624506.1377866l.62769433.9645059c.01351561.023128.03605976.0395758.06220946.0453868.02614971.0058111.05353817.0004594.0755771-.0147676l1.05636364-.6561264c.02669514-.013637.04571995-.0386969.0516807-.0680749.00596076-.0293781-.00179243-.0598711-.02106146-.0828342z"/><path d="m5.6142556 14.7737813-.68455863-.9754414c-.0319307-.0438566-.09288323-.0544991-.13778656-.024058l-1.00168643.6736232c-.02227284.0143089-.03784209.0369873-.04319208.0629141-.00534998.0259269-.00002954.0529158.01475993.0748725l.62769434.966693c.03055603.0451097.09100113.0585419.13778656.0306193l1.05855072-.6561265c.02583619-.0150627.04383155-.0406303.04929222-.070034.00546068-.0294036-.00215482-.0597276-.02086007-.0830622z"/><path d="m4.11828722 15.8104611-.68455863-.9754413c-.01465678-.0219189-.03749585-.0370398-.06339786-.0419735-.02590202-.0049337-.05270053.0007324-.0743887.0157284l-1.00168643.6758103c-.02227284.0143089-.03784209.0369872-.04319208.0629141-.00534998.0259268-.00002954.0529158.01475993.0748724l.62769434.964506c.02986311.0461176.09120192.0597485.13778656.0306192l1.05855072-.6561265c.02572641-.0146048.04372103-.0397922.04919826-.0688637.00547723-.0290714-.00211813-.0590801-.02076611-.0820454z"/><path d="m6.46722003 9.61225296-.65612649-.91857707c-.04293305-.05935542-.12524643-.07388131-.1859025-.03280632l-.94482213.63644268c-.0297219.01960758-.05037251.05028279-.05735559.08519819-.00698308.03491539.00028087.07117351.02017509.10070432l.59051383.90764164c.01848543.0302945.04845289.0518101.08306743.0596396.03461455.0078295.07092438.0013051.10064798-.0180849l.99949935-.62769437c.03328374-.01782462.05762882-.04871909.06717619-.08524816.00954737-.03652906.00343243-.07538468-.01687316-.10721561z"/><path d="m4.97125165 10.6489328-.64519104-.91857707c-.01995102-.02936858-.05078546-.0495733-.08567701-.05614112-.03489155-.00656783-.07096187.00104306-.1002255.02114771l-.94482213.64737808c-.02957862.0191954-.05018756.0494869-.05718196.0840475-.00699441.0345606.00021432.0704819.02000146.099668l.59051383.9098287c.04005716.061063.12127834.0794345.18371542.0415547l.99949934-.6276944c.0341398-.0195653.05809712-.0529955.06565255-.0916121.00755542-.0386167-.00203625-.0786109-.02628496-.1096z"/><path d="m3.47528327 11.6856126-.64519104-.9207641c-.04293306-.0593554-.12524644-.0738813-.18590251-.0328063l-.94482213.6364426c-.0297219.0196076-.05037251.0502828-.05735558.0851982-.00698308.0349154.00028086.0711735.02017508.1007044l.59051383.9076416c.01848543.0302945.04845289.0518101.08306744.0596396.03461454.0078295.07092437.0013051.10064798-.0180849l.99949934-.6276944c.0313414-.0192613.05333867-.0506091.06079192-.0866332.00745326-.036024-.00029904-.0735269-.02142433-.1036435z"/><path d="m1.99899868 12.7485375-.68455863-.9776284c-.0319307-.0438566-.09288323-.0544991-.13778656-.024058l-1.00168643.6736232c-.04563903.0313789-.05821173.0932753-.02843215.1399737l.62769434.9645059c.03055603.0451096.09100113.0585419.13778656.0306192l1.05855072-.6561265c.02702387-.0134156.04619167-.0387286.05177772-.0683777.00558605-.029649-.00305634-.0602016-.02334557-.0825314z"/><path d="m19.7012912 2.65512516-.5927009-.84202898c-.0692089-.09414148-.2001927-.11725626-.2974441-.05249012l-2.3139393 1.62063241c-.0930467.06755375-.1178955.19562038-.0568643.29306983l.5577075.86171278c.0324351.04820336.0827171.08152004.139751.09259858.057034.01107853.1161321-.00099165.1642542-.0335472l2.3489328-1.64250329c.0934034-.06987013.1155367-.20074556.0503031-.29744401z"/><path d="m4.58632411 13.2625033-.72611331-1.0257444c-.01501552-.0222062-.03843929-.0373269-.0648583-.0418676-.02641902-.0045408-.05354715.0018912-.07511535.0178096l-2.4976548 1.7496706c-.0443197.0304425-.05600547.090819-.02624506.1355995l.68237154 1.0563637c.01473287.0230432.03821249.039095.06503181.0444588.02681932.0053639.05466658-.0004225.07712893-.0160267l2.53920948-1.7781028c.04621988-.0321929.05792334-.0955866.02624506-.1421607z"/><path d="m12.5320158 5.41741765-.669249-.97981554c-.0312544-.04460057-.0923248-.05623302-.1377866-.02624506l-5.54645583 3.74429512c-.04535431.03056548-.05798269.09176453-.02843214.13778657l.68455863 1.04980237c.01473287.02304321.03821249.039095.06503181.04445886.02681932.00536387.05466658-.00042255.07712892-.01602672l5.52895921-3.81428195c.0220626-.01506487.0372274-.03828626.0421507-.06454402.0049234-.02625777-.0007991-.05339553-.0159057-.07542963z"/></g><g fill="#464a5f"><path d="m196.142451 72.5610277-.551147-.7873518c-.068542-.0948842-.199639-.1189829-.297444-.0546772l-.813596.5511462c-.095841.0663694-.122778.196246-.061239.2952569l.505217.7764164c.064998.0973672.19514.1262877.295257.0656126l.861713-.5423979c.048558-.0320915.082321-.0822146.093815-.1392726.011493-.057058-.00023-.116344-.032576-.1647326z"/><path d="m194.668353 73.5758366-.551146-.7851647c-.068383-.093582-.197898-.1175662-.295257-.0546772l-.815784.5489592c-.09584.0663694-.122777.1962459-.061238.2952569l.505217.7764163c.064997.0973672.195139.1262877.295257.0656127l.861713-.5402108c.049179-.0321086.083378-.0826482.094896-.1402407.011519-.0575926-.000611-.1173978-.033658-.1659517z"/><path d="m193.137391 74.6431357-.551146-.7851647c-.068542-.0948842-.199639-.1189829-.297444-.0546772l-.813597.5511463c-.09584.0663693-.122777.1962459-.061238.2952569l.505217.7764163c.065686.0966015.195693.1245289.295257.0634256l.861713-.5402108c.049179-.0321087.083378-.0826482.094896-.1402408.011519-.0575926-.000611-.1173977-.033658-.1659516z"/><path d="m191.57581 75.7213702-.551146-.7873518c-.068383-.093582-.197898-.1175662-.295257-.0546772l-.815784.5511463c-.048474.0327996-.081779.0836597-.092466.1412041s.002136.1169713.035602.1649882l.505217.7764164c.064997.0973672.19514.1262877.295257.0656126l.859526-.5423979c.051393-.0324645.086957-.0848541.09816-.1446014.011202-.0597474-.002967-.1214618-.039109-.1703393z"/><path d="m190.018603 76.7996047-.551146-.7851646c-.068383-.0935821-.197898-.1175663-.295257-.0546773l-.815784.5489592c-.095083.0670464-.121033.1967975-.059051.2952569l.50303.7764164c.064997.0973672.19514.1262877.295257.0656126l.861713-.5423979c.048558-.0320915.082321-.0822146.093815-.1392726.011493-.057058-.000231-.116344-.032577-.1647327z"/><path d="m188.529196 77.9762582-.684558-.9754413c-.014657-.0219189-.037496-.0370398-.063398-.0419735s-.052701.0007324-.074389.0157284l-1.001686.6758103c-.022273.0143089-.037842.0369872-.043192.0629141-.00535.0259268-.00003.0529158.01476.0748724l.627694.964506c.029863.0461176.091202.0597485.137786.0306192l1.058551-.6561265c.025727-.0146048.043721-.0397922.049198-.0688637.005478-.0290714-.002118-.0590801-.020766-.0820454z"/><path d="m186.971989 79.0544928-.684558-.9754414c-.015065-.0220626-.038286-.0372275-.064544-.0421508s-.053396.0007992-.07543.0159057l-.999499.6758103c-.022273.0143089-.037842.0369873-.043192.0629141-.00535.0259269-.00003.0529158.01476.0748725l.627694.966693c.014309.0222728.036987.0378421.062914.0431921.025927.0053499.052916.0000295.074873-.01476l1.05855-.6561265c.025146-.0151109.042638-.0402464.04807-.0690764.005431-.02883-.001714-.0586071-.019638-.0818326z"/><path d="m185.591937 80.0102503-.684559-.9776284c-.031931-.0438567-.092883-.0544992-.137786-.024058l-1.001687.6648748c-.045639.031379-.058212.0932753-.028432.1399737l.627694.9645059c.030556.0451097.091001.0585419.137787.0306192l1.058551-.6561264c.023043-.0147329.039095-.0382125.044458-.0650318.005364-.0268194-.000422-.0546666-.016026-.077129z"/><path d="m184.047852 81.0797365-.684558-.9688801c-.031931-.0438566-.092883-.0544991-.137787-.024058l-1.001686.6736232c-.022417.0147218-.038027.0377842-.043366.0640658-.005338.0262817.000038.053607.014934.0759079l.627694.9645059c.030556.0451096.091001.0585419.137787.0306192l1.05855-.6561265c.028731-.014137.049017-.0411067.054631-.0726315.005614-.0315249-.004114-.0638395-.026199-.0870259z"/><path d="m182.551884 82.1142292-.684559-.9754413c-.014656-.0219188-.037495-.0370398-.063397-.0419735s-.052701.0007325-.074389.0157284l-1.001687.6758103c-.022272.0143089-.037842.0369872-.043192.0629141s-.000029.0529158.01476.0748725l.627695.9645059c.013954.0226308.03647.0386534.062424.0444209s.053137.0007892.075362-.0138017l1.058551-.6561265c.025726-.0146048.043721-.0397922.049198-.0688637.005477-.0290714-.002118-.0590801-.020766-.0820454z"/><path d="m181.055916 83.1509091-.684559-.9776285c-.031931-.0438566-.092883-.0544991-.137787-.0240579l-1.001686.6736231c-.045639.031379-.058212.0932754-.028432.1399737l.627694.9645059c.030556.0451097.091001.0585419.137787.0306193l1.058551-.6561265c.025726-.0146049.043721-.0397923.049198-.0688637.005477-.0290715-.002118-.0590802-.020766-.0820454z"/><path d="m179.559947 84.1854018-.684558-.9754413c-.014657-.0219188-.037496-.0370398-.063398-.0419735s-.052701.0007324-.074389.0157284l-1.001686.6758103c-.022273.0143089-.037842.0369872-.043192.0629141-.00535.0259268-.00003.0529158.01476.0748725l.627694.9645059c.013954.0226308.03647.0386534.062424.0444209s.053137.0007892.075362-.0138017l1.058551-.6561265c.025727-.0146048.043721-.0397922.049198-.0688637.005478-.0290714-.002118-.0590801-.020766-.0820454z"/><path d="m195.156074 71.1437945-.551146-.7873518c-.068384-.093582-.197898-.1175662-.295257-.0546772l-.815784.5511462c-.095083.0670465-.121034.1967975-.059052.2952569l.503031.7764164c.064997.0973672.195139.1262877.295257.0656126l.861712-.5423979c.048558-.0320915.082321-.0822146.093815-.1392726s-.00023-.116344-.032576-.1647326z"/><path d="m193.001792 68.0250066-.551146-.7851647c-.068384-.093582-.197898-.1175662-.295257-.0546772l-.815784.5489591c-.095083.0670465-.121033.1967975-.059052.295257l.505218.7764163c.064861.0960873.19343.1248713.29307.0656126l.861712-.5402108c.04918-.0321086.083378-.0826481.094897-.1402407.011518-.0575926-.000611-.1173977-.033658-.1659516z"/><path d="m193.688538 72.1520422-.551147-.7895389c-.068383-.093582-.197897-.1175662-.295257-.0546772l-.815784.5489591c-.095083.0670465-.121033.1967975-.059051.295257l.505217.7764163c.064862.0960873.19343.1248713.29307.0656126l.861713-.5402108c.099791-.0667461.127124-.2014564.061239-.3018181z"/><path d="m192.148827 73.2171542-.542397-.7851647c-.068384-.0935821-.197898-.1175663-.295257-.0546772l-.815784.5489591c-.096383.0671915-.122458.1985296-.059052.297444l.503031.7764164c.065686.0966015.195693.1245289.295257.0634255l.861712-.5402108c.047777-.0334787.080198-.0846575.090055-.1421574.009857-.0575-.003667-.116555-.037565-.1640349z"/><path d="m190.591621 74.2975758-.551147-.7873518c-.068542-.0948842-.199639-.1189829-.297444-.0546772l-.813597.5511462c-.09584.0663694-.122777.196246-.061238.2952569l.505217.7764164c.064997.0973672.19514.1262877.295257.0656126l.861713-.5423979c.048558-.0320915.082321-.0822146.093815-.1392726.011493-.057058-.00023-.116344-.032576-.1647326z"/><path d="m191.569249 69.0901186-.551146-.7895389c-.068383-.093582-.197898-.1175662-.295257-.0546772l-.815784.5489592c-.095083.0670464-.121033.1967975-.059051.2952569l.505217.7764163c.064861.0960873.19343.1248714.29307.0656127l.861713-.5402108c.099791-.0667462.127123-.2014565.061238-.3018182z"/><path d="m190.029539 70.1574177-.551146-.7873518c-.068383-.0935821-.197898-.1175662-.295257-.0546772l-.815784.5511462c-.09584.0663694-.122778.196246-.061239.2952569l.505218.7764164c.064997.0973672.195139.1262877.295257.0656126l.861712-.5423979c.048558-.0320915.082321-.0822146.093815-.1392726s-.00023-.116344-.032576-.1647326z"/><path d="m188.472332 71.2356522-.551146-.7851647c-.068542-.0948842-.199639-.1189829-.297444-.0546772l-.813597.5489591c-.09584.0663694-.122778.196246-.061239.295257l.505218.7786034c.064997.0973672.195139.1262877.295257.0656126l.859525-.5423979c.049535-.0317585.084184-.0821369.096119-.139755s.00015-.1176149-.032693-.1664373z"/><path d="m189.032227 75.3758103-.551147-.7851647c-.068383-.093582-.197897-.1175662-.295257-.0546772l-.815783.544585c-.095083.0670464-.121034.1967975-.059052.2952569l.505218.7764163c.064861.0960873.193429.1248713.293069.0656127l.861713-.5423979c.098456-.0666332.125655-.1997102.061239-.2996311z"/><path d="m187.47502 76.4540448-.551146-.7851647c-.068384-.093582-.197898-.1175662-.295257-.0546772l-.815784.5598946c-.09584.0663694-.122778.1962459-.061239.2952569l.505218.7764164c.064997.0973672.195139.1262876.295257.0656126l.861712-.5402108c.052405-.0320829.088896-.0847302.100546-.1450609s-.002616-.1227793-.039307-.1720669z"/><path d="m185.985613 77.6306983-.684559-.9754414c-.014657-.0219188-.037496-.0370397-.063398-.0419735-.025902-.0049337-.0527.0007325-.074389.0157285l-.992938.6758102c-.022272.0143089-.037842.0369873-.043192.0629141-.00535.0259269-.000029.0529158.01476.0748725l.627695.9645059c.013954.0226308.03647.0386534.062424.0444209s.053137.0007893.075362-.0138016l1.058551-.6561265c.023791-.0165447.039494-.0423629.043242-.071098s-.004807-.0577174-.023558-.0798111z"/><path d="m184.607747 78.5798946-.684559-.9776285c-.032726-.0441447-.094385-.0547423-.139973-.0240579l-1.001687.6736232c-.044648.032027-.057047.0930649-.028432.1399736l.629882.9645059c.029863.0461177.091202.0597485.137786.0306193l1.056364-.6561265c.026695-.013637.04572-.0386969.051681-.0680749.00596-.029378-.001793-.0598711-.021062-.0828342z"/><path d="m183.061476 79.655942-.684559-.9776284c-.031931-.0438567-.092883-.0544992-.137787-.024058l-1.001686.6736232c-.045639.0313789-.058212.0932753-.028432.1399736l.627694.964506c.030556.0451096.091001.0585419.137787.0306192l1.05855-.6561265c.027024-.0134156.046192-.0387287.051778-.0683777s-.003056-.0602016-.023345-.0825314z"/><path d="m181.567694 80.6904348-.677997-.9754414c-.014657-.0219188-.037496-.0370397-.063398-.0419735-.025902-.0049337-.0527.0007325-.074389.0157285l-1.001686.6758102c-.045354.0305655-.057983.0917646-.028432.1377866l.627694.9645059c.029863.0461177.091202.0597485.137787.0306193l1.05855-.6561265c.025343-.0152139.042505-.0410122.046745-.0702649.004239-.0292526-.004893-.0588618-.024874-.0806442z"/><path d="m191.123083 71.7386825-.548959-.7873518c-.068542-.0948842-.199639-.1189829-.297444-.0546772l-.815784.5511462c-.095083.0670465-.121033.1967975-.059051.295257l.505217.7764163c.065686.0966015.195693.1245289.295257.0634256l.859526-.5402109c.048557-.0320914.08232-.0822145.093814-.1392726.011494-.057058-.00023-.116344-.032576-.1647326z"/><path d="m189.565876 72.816917-.551146-.7851647c-.067718-.0943303-.197348-.1192962-.295257-.0568643l-.815784.5511463c-.095083.0670464-.121033.1967975-.059051.2952569l.505217.7764163c.064861.0960873.19343.1248713.29307.0656127l.861713-.5423979c.048557-.0320915.082321-.0822146.093814-.1392727.011494-.057058-.00023-.116344-.032576-.1647326z"/><path d="m188.008669 73.8951515-.557707-.7829776c-.068542-.0948842-.199639-.1189829-.297444-.0546772l-.7961.5467721c-.09584.0663694-.122778.1962459-.061239.2952569l.505218.7764163c.064997.0973672.195139.1262877.295256.0656127l.861713-.5402108c.047431-.0338139.079413-.0851514.088856-.1426306.009443-.0574791-.004434-.1163505-.038553-.1635618z"/><path d="m186.449275 74.973386-.551146-.7851647c-.068383-.093582-.197898-.1175662-.295257-.0546772l-.815784.5489592c-.095083.0670464-.121033.1967975-.059051.2952569l.505217.7764163c.064861.0960873.19343.1248714.29307.0656127l.861713-.5402108c.049179-.0321086.083378-.0826482.094896-.1402407.011519-.0575926-.000611-.1173978-.033658-.1659517z"/><path d="m184.962055 76.1500395-.684558-.9754413c-.015065-.0220627-.038287-.0372275-.064544-.0421508-.026258-.0049234-.053396.0007991-.07543.0159057l-1.001686.6758103c-.045355.0305655-.057983.0917645-.028433.1377865l.627695.9666931c.014722.0224163.037784.038027.064066.0433655.026281.0053384.053607-.0000373.075907-.0149334l1.056364-.6561265c.026074-.0142148.044535-.0392229.05044-.0683266s-.001349-.0593295-.019821-.0825825z"/><path d="m183.582003 77.1057971-.684559-.9754414c-.014657-.0219188-.037496-.0370397-.063398-.0419734-.025902-.0049338-.0527.0007324-.074389.0157284l-.995125.6736232c-.045639.0313789-.058211.0932753-.028432.1399736l.627694.9645059c.030556.0451097.091002.0585419.137787.0306193l1.058551-.6561265c.024711-.0157304.041338-.0414495.04554-.0704394.004201-.0289899-.004441-.0583714-.023669-.0804697z"/><path d="m182.037918 78.1752833-.684558-.9776285c-.032727-.0441447-.094386-.0547423-.139974-.024058l-.999499.6736232c-.045639.031379-.058212.0932753-.028432.1399737l.627694.9645059c.029863.0461176.091202.0597485.137786.0306192l1.058551-.6561264c.025727-.0146049.043721-.0397923.049198-.0688637.005478-.0290715-.002118-.0590802-.020766-.0820454z"/><path d="m180.54195 79.209776-.684559-.9754413c-.015065-.0220627-.038286-.0372275-.064544-.0421508-.026257-.0049234-.053395.0007991-.075429.0159057l-.9995.6758103c-.022273.0143089-.037842.0369872-.043192.0629141-.00535.0259268-.000029.0529158.01476.0748724l.627695.966693c.014308.0222729.036987.0378421.062914.0431921.025926.00535.052915.0000296.074872-.0147599l1.058551-.6561265c.025146-.015111.042637-.0402464.048069-.0690764s-.001714-.0586071-.019637-.0818327z"/><path d="m180.071726 81.7271146-.684559-.9776284c-.032726-.0441447-.094385-.0547424-.139973-.024058l-1.001687.6736232c-.045639.0313789-.058211.0932753-.028432.1399736l.627694.964506c.030556.0451096.091002.0585418.137787.0306192l1.058551-.6561265c.026695-.013637.04572-.0386969.05168-.0680749.005961-.029378-.001792-.0598711-.021061-.0828342z"/><path d="m178.575758 82.7616074-.684559-.9754414c-.015065-.0220626-.038286-.0372274-.064544-.0421508-.026258-.0049233-.053396.0007992-.07543.0159057l-1.001686.6758103c-.045354.0305655-.057983.0917645-.028432.1377866l.627694.9645059c.014372.022774.037274.0388354.063582.0445902.026307.0057548.053824.0007224.076392-.0139709l1.056363-.6561265c.026695-.013637.04572-.0386969.051681-.0680749.005961-.0293781-.001792-.0598711-.021061-.0828342z"/><path d="m180.922503 76.5655863-.645191-.9207642c-.042933-.0593554-.125246-.0738813-.185902-.0328063l-.951384.6364427c-.06085.0415692-.077362.1241269-.03718.1859025l.590514.9098287c.040873.0616086.123565.0791199.185902.0393676l.997312-.6276943c.032419-.0181484.055801-.0489929.064519-.0851082.008717-.0361153.00198-.0742299-.01859-.1051685z"/><path d="m179.426535 77.6000791-.645191-.9185771c-.019951-.0293686-.050786-.0495733-.085677-.0561411-.034892-.0065679-.070962.001043-.100226.0211477l-.944822.6386297c-.06057.0407516-.077139.1226187-.03718.1837155l.590514.9098287c.040872.0613537.122796.0796662.185902.0415547l.999499-.6276944c.030632-.0204469.051803-.0523058.058789-.0884663s-.000796-.0736126-.021608-.1039974z"/><path d="m177.930567 78.6367589-.656127-.9207642c-.042129-.0590732-.123745-.0736474-.183715-.0328063l-.94701.6364427c-.06085.0415692-.077361.1241269-.03718.1859025l.590514.9098287c.040873.0616086.123565.0791199.185902.0393676l.9995-.6276943c.032782-.0177657.056634-.0484398.065776-.084589.009141-.0361492.002737-.0744743-.01766-.1056877z"/><path d="m176.456469 79.7018709-.684559-.9776285c-.032726-.0441447-.094385-.0547423-.139973-.0240579l-1.001687.6736231c-.044887.0320589-.056469.0938314-.026245.1399737l.627695.9645059c.029863.0461177.091202.0597485.137786.0306193l1.058551-.6561265c.025726-.0146049.043721-.0397923.049198-.0688637.005477-.0290715-.002118-.0590802-.020766-.0820454z"/><path d="m194.158762 69.6128327-.583953-.8442161c-.069209-.0941415-.200193-.1172563-.297444-.0524901l-2.327062 1.6206324c-.093047.0675537-.117895.1956204-.056864.2930698l.559894.8617128c.032435.0482034.082717.08152.139751.0925986.057034.0110785.116132-.0009917.164255-.0335472l2.346745-1.6425033c.093582-.0683831.117567-.1978977.054678-.2952569z"/><path d="m179.041607 80.2136495-.726113-1.0257444c-.015015-.0222062-.038439-.0373268-.064858-.0418676s-.053547.0018913-.075116.0178097l-2.497654 1.7496706c-.044601.0312544-.056233.0923248-.026245.1377865l.684558 1.0541766c.014733.0230432.038213.039095.065032.0444589.026819.0053638.054667-.0004226.077129-.0160268l2.539209-1.7781027c.04548-.0328756.056188-.0961512.024058-.1421608z"/><path d="m186.987299 72.3685639-.656126-.9732543c-.031379-.045639-.093276-.0582117-.139974-.0284321l-5.544269 3.7399209c-.022273.0143089-.037842.0369873-.043192.0629141-.00535.0259269-.000029.0529158.01476.0748725l.682372 1.0498024c.014732.0230432.038212.039095.065031.0444588.02682.0053639.054667-.0004225.077129-.0160267l5.528959-3.814282c.042345-.0347169.049149-.0969241.01531-.1399736z"/></g><path d="m187.013544 69.026693-2.948195-4.2845059c-.169767-.2478167-.507662-.3122707-.756732-.1443478l-8.120659 5.452411c-.120787.081678-.204116.2080539-.231606.3512495-.027491.1431956.003117.2914448.085071.4120443l3.005059 4.4069829c.081636.1209113.208207.2041839.351556.2312929s.291588-.0041939.411738-.0869451l8.063794-5.5792622c.119442-.0818863.201349-.2079734.227616-.3503871.026266-.1424137-.005272-.2894244-.087642-.4085325z" fill="#000" opacity=".1"/><path d="m187.149144 69.0529381-2.948195-4.284506c-.170468-.2467442-.507407-.3110158-.756733-.1443478l-8.109723 5.4567853c-.121617.0809484-.205781.2072002-.23372.3505969-.02794.1433967.002668.292011.084998.4126969l2.996311 4.4026087c.081635.1209113.208206.2041838.351555.2312929.14335.027109.291588-.0041939.411738-.0869451l8.068169-5.5792622c.118741-.0825629.199765-.2089668.225202-.351336.025438-.1423693-.006799-.2890099-.089602-.4075836z" fill="#939498"/><path d="m205.431014 75.9772596-6.255072-2.0864823-20.062161 13.9361265 6.209144 2.0230567c.339418.1107477.711143.0556773 1.003873-.148722l19.161081-13.3237418c.076243-.0449824.117852-.1314892.1054-.219133-.012452-.0876437-.076509-.159138-.162265-.1811041z" fill="#387ed1"/></g></svg>